<svg fill="#000000" height="200px" width="200px" version="1.1" id="Layer_1" xmlns="http://www.w3.org/2000/svg" xmlns:xlink="http://www.w3.org/1999/xlink" viewBox="0 0 330 330" xml:space="preserve"><g id="SVGRepo_bgCarrier" stroke-width="0"></g><g id="SVGRepo_tracerCarrier" stroke-linecap="round" stroke-linejoin="round"></g><g id="SVGRepo_iconCarrier"> <path id="XMLID_233_" d="M282.779,280.428C311.969,250.649,330,209.893,330,164.999c0-90.98-74.018-164.997-164.998-164.997 c-44.902,0-85.665,18.037-115.445,47.235c-0.423,0.34-0.833,0.701-1.226,1.093c-0.392,0.392-0.753,0.802-1.093,1.225 C18.038,79.334,0,120.097,0,164.999c0,90.981,74.019,165,165.002,165c44.893,0,85.648-18.031,115.427-47.22 c0.429-0.344,0.847-0.709,1.244-1.107C282.07,281.274,282.435,280.856,282.779,280.428z M300,164.999 c0,31.828-11.078,61.112-29.571,84.216L231.214,210H235h20c8.284,0,15-6.716,15-15v-60c0-8.284-6.716-15-15-15h-20h-93.786 L80.786,59.571c23.104-18.492,52.389-29.57,84.216-29.57C239.44,30.001,300,90.561,300,164.999z M171.214,150H220v30h-18.786 L171.214,150z M158.789,180H90v-30h38.789L158.789,180z M30,164.999c0-31.827,11.078-61.111,29.572-84.215L98.789,120H75 c-8.284,0-15,6.716-15,15v60c0,8.284,6.716,15,15,15h113.789l60.428,60.428c-23.104,18.493-52.388,29.571-84.214,29.571 C90.561,299.999,30,239.439,30,164.999z"></path> </g></svg>