<svg viewBox="0 0 1024 1024" xmlns="http://www.w3.org/2000/svg" fill="#000000" stroke="#000000" stroke-width="4.096"><g id="SVGRepo_bgCarrier" stroke-width="0"></g><g id="SVGRepo_tracerCarrier" stroke-linecap="round" stroke-linejoin="round"></g><g id="SVGRepo_iconCarrier"><path fill="#000000" d="M256 448h512V160a32 32 0 0 0-32-32H288a32 32 0 0 0-32 32v288zm0 64v352a32 32 0 0 0 32 32h448a32 32 0 0 0 32-32V512H256zm32-448h448a96 96 0 0 1 96 96v704a96 96 0 0 1-96 96H288a96 96 0 0 1-96-96V160a96 96 0 0 1 96-96zm32 224h64v96h-64v-96zm0 288h64v96h-64v-96z"></path></g></svg>